<mxfile host="Electron" modified="2024-04-18T05:47:08.613Z" agent="Mozilla/5.0 (Windows NT 10.0; Win64; x64) AppleWebKit/537.36 (KHTML, like Gecko) draw.io/22.1.2 Chrome/114.0.5735.289 Electron/25.9.4 Safari/537.36" etag="R96GHtHNMve9tOR8RYGv" version="22.1.2" type="device">
  <diagram name="Page-1" id="mc6PUCPOcYZVAAoVkP60">
    <mxGraphModel dx="678" dy="432" grid="1" gridSize="10" guides="1" tooltips="1" connect="1" arrows="1" fold="1" page="1" pageScale="1" pageWidth="850" pageHeight="1100" math="0" shadow="0">
      <root>
        <mxCell id="0" />
        <mxCell id="1" parent="0" />
        <mxCell id="-p60_nQLc98g8RZS53xo-1" value="us-east-1" style="points=[[0,0],[0.25,0],[0.5,0],[0.75,0],[1,0],[1,0.25],[1,0.5],[1,0.75],[1,1],[0.75,1],[0.5,1],[0.25,1],[0,1],[0,0.75],[0,0.5],[0,0.25]];outlineConnect=0;gradientColor=none;html=1;whiteSpace=wrap;fontSize=12;fontStyle=0;container=1;pointerEvents=0;collapsible=0;recursiveResize=0;shape=mxgraph.aws4.group;grIcon=mxgraph.aws4.group_region;strokeColor=#00A4A6;fillColor=none;verticalAlign=top;align=left;spacingLeft=30;fontColor=#147EBA;dashed=1;" vertex="1" parent="1">
          <mxGeometry x="90" y="80" width="640" height="320" as="geometry" />
        </mxCell>
        <mxCell id="-p60_nQLc98g8RZS53xo-6" value="&lt;div style=&quot;color: rgb(204, 204, 204); background-color: rgb(31, 31, 31); font-family: Consolas, &amp;quot;Courier New&amp;quot;, monospace; font-size: 14px; line-height: 19px;&quot;&gt;fetchVPCs_layer&lt;/div&gt;" style="verticalLabelPosition=bottom;html=1;verticalAlign=top;align=center;strokeColor=none;fillColor=#00BEF2;shape=mxgraph.azure.cloud_service_package_file;" vertex="1" parent="-p60_nQLc98g8RZS53xo-1">
          <mxGeometry x="191" y="39" width="80" height="90" as="geometry" />
        </mxCell>
        <mxCell id="-p60_nQLc98g8RZS53xo-2" value="&lt;div style=&quot;color: rgb(204, 204, 204); background-color: rgb(31, 31, 31); font-family: Consolas, &amp;quot;Courier New&amp;quot;, monospace; font-size: 14px; line-height: 19px;&quot;&gt;fetchVPCs_function&lt;/div&gt;" style="sketch=0;outlineConnect=0;fontColor=#232F3E;gradientColor=none;fillColor=#ED7100;strokeColor=none;dashed=0;verticalLabelPosition=bottom;verticalAlign=top;align=center;html=1;fontSize=12;fontStyle=0;aspect=fixed;pointerEvents=1;shape=mxgraph.aws4.lambda_function;" vertex="1" parent="-p60_nQLc98g8RZS53xo-1">
          <mxGeometry x="511" y="41" width="88" height="88" as="geometry" />
        </mxCell>
        <mxCell id="-p60_nQLc98g8RZS53xo-7" value="&lt;div style=&quot;color: rgb(204, 204, 204); background-color: rgb(31, 31, 31); font-family: Consolas, &amp;quot;Courier New&amp;quot;, monospace; font-size: 14px; line-height: 19px;&quot;&gt;lambda_iam_role&lt;/div&gt;" style="sketch=0;outlineConnect=0;fontColor=#232F3E;gradientColor=none;fillColor=#DD344C;strokeColor=none;dashed=0;verticalLabelPosition=bottom;verticalAlign=top;align=center;html=1;fontSize=12;fontStyle=0;aspect=fixed;pointerEvents=1;shape=mxgraph.aws4.role;" vertex="1" parent="-p60_nQLc98g8RZS53xo-1">
          <mxGeometry x="352" y="220" width="78" height="44" as="geometry" />
        </mxCell>
        <mxCell id="-p60_nQLc98g8RZS53xo-8" value="" style="curved=1;endArrow=classic;html=1;rounded=0;" edge="1" parent="-p60_nQLc98g8RZS53xo-1" source="-p60_nQLc98g8RZS53xo-2" target="-p60_nQLc98g8RZS53xo-7">
          <mxGeometry width="50" height="50" relative="1" as="geometry">
            <mxPoint x="321" y="180" as="sourcePoint" />
            <mxPoint x="371" y="130" as="targetPoint" />
            <Array as="points">
              <mxPoint x="371" y="180" />
              <mxPoint x="521" y="180" />
              <mxPoint x="321" y="130" />
            </Array>
          </mxGeometry>
        </mxCell>
        <mxCell id="-p60_nQLc98g8RZS53xo-9" value="IAM Role Holds EC2 full access, in order to manage the lambda it self." style="rounded=1;whiteSpace=wrap;html=1;strokeWidth=2;fillWeight=4;hachureGap=8;hachureAngle=45;fillColor=#CCCCFF;sketch=1;" vertex="1" parent="-p60_nQLc98g8RZS53xo-1">
          <mxGeometry x="151" y="240" width="160" height="60" as="geometry" />
        </mxCell>
        <mxCell id="-p60_nQLc98g8RZS53xo-10" value="lambda Python function Fetch existing VPCs details." style="rounded=1;whiteSpace=wrap;html=1;strokeWidth=2;fillWeight=4;hachureGap=8;hachureAngle=45;fillColor=#CCCCFF;sketch=1;" vertex="1" parent="-p60_nQLc98g8RZS53xo-1">
          <mxGeometry x="336" y="50" width="160" height="60" as="geometry" />
        </mxCell>
        <mxCell id="-p60_nQLc98g8RZS53xo-11" value="lambda layer have python function dependencies packaged as zip file." style="rounded=1;whiteSpace=wrap;html=1;strokeWidth=2;fillWeight=4;hachureGap=8;hachureAngle=45;fillColor=#CCCCFF;sketch=1;" vertex="1" parent="-p60_nQLc98g8RZS53xo-1">
          <mxGeometry x="13" y="50" width="160" height="60" as="geometry" />
        </mxCell>
        <mxCell id="-p60_nQLc98g8RZS53xo-12" value="" style="curved=1;endArrow=classic;html=1;rounded=0;entryX=1;entryY=0.26;entryDx=0;entryDy=0;entryPerimeter=0;" edge="1" parent="-p60_nQLc98g8RZS53xo-1" source="-p60_nQLc98g8RZS53xo-2" target="-p60_nQLc98g8RZS53xo-6">
          <mxGeometry width="50" height="50" relative="1" as="geometry">
            <mxPoint x="521" y="-6" as="sourcePoint" />
            <mxPoint x="387" y="106" as="targetPoint" />
            <Array as="points">
              <mxPoint x="460" y="60" />
              <mxPoint x="381" y="66" />
              <mxPoint x="490" />
              <mxPoint x="531" y="66" />
              <mxPoint x="331" y="16" />
            </Array>
          </mxGeometry>
        </mxCell>
      </root>
    </mxGraphModel>
  </diagram>
</mxfile>
